<?xml version="1.0" encoding="UTF-8" standalone="no" ?>
<!DOCTYPE svg PUBLIC "-//W3C//DTD SVG 1.1//EN" "http://www.w3.org/Graphics/SVG/1.1/DTD/svg11.dtd">
<svg xmlns="http://www.w3.org/2000/svg" xmlns:xlink="http://www.w3.org/1999/xlink" version="1.1" width="1080" height="1080" viewBox="0 0 1080 1080" xml:space="preserve">
<desc>Created with Fabric.js 5.2.4</desc>
<defs>
</defs>
<g transform="matrix(1 0 0 1 540 540)" id="02575580-045a-4469-bc1d-2ffb937e6f5d"  >
</g>
<g transform="matrix(1 0 0 1 540 540)" id="f0c5b950-74ee-4889-ab88-298918e189cf"  >
<rect style="stroke: none; stroke-width: 1; stroke-dasharray: none; stroke-linecap: butt; stroke-dashoffset: 0; stroke-linejoin: miter; stroke-miterlimit: 4; fill: rgb(255,255,255); fill-rule: nonzero; opacity: 1;" vector-effect="non-scaling-stroke"  x="-540" y="-540" rx="0" ry="0" width="1080" height="1080" />
</g>
<g transform="matrix(15.43 0 0 15.43 540 540)"  >
<g style=""   >
		<g transform="matrix(1.07 0 0 1.07 -27.21 2.93)"  >
<linearGradient id="SVGID___JETBRAINS_COM__LOGO_PREFIX__2_5" gradientUnits="userSpaceOnUse" gradientTransform="matrix(1 0 0 1 0 0)"  x1="5.174" y1="39.889" x2="40.014" y2="38.123">
<stop offset="9.1%" style="stop-color:rgb(252,128,29);stop-opacity: 1"/>
<stop offset="23.1%" style="stop-color:rgb(176,127,97);stop-opacity: 1"/>
<stop offset="40.9%" style="stop-color:rgb(87,125,179);stop-opacity: 1"/>
<stop offset="53.300000000000004%" style="stop-color:rgb(30,124,230);stop-opacity: 1"/>
<stop offset="59.3%" style="stop-color:rgb(8,124,250);stop-opacity: 1"/>
</linearGradient>
<path style="stroke: none; stroke-width: 1; stroke-dasharray: none; stroke-linecap: butt; stroke-dashoffset: 0; stroke-linejoin: miter; stroke-miterlimit: 4; fill: url(#SVGID___JETBRAINS_COM__LOGO_PREFIX__2_5); fill-rule: nonzero; opacity: 1;" vector-effect="non-scaling-stroke"  transform=" translate(-9.6, -37.73)" d="M 11.2 49.467 L 0.7 41.3 L 9 26 L 18.5 33.5 L 11.2 49.467 Z" stroke-linecap="round" />
</g>
		<g transform="matrix(1.07 0 0 1.07 14.5 10)"  >
<path style="stroke: none; stroke-width: 1; stroke-dasharray: none; stroke-linecap: butt; stroke-dashoffset: 0; stroke-linejoin: miter; stroke-miterlimit: 4; fill: rgb(8,124,250); fill-rule: nonzero; opacity: 1;" vector-effect="non-scaling-stroke"  transform=" translate(-48.53, -44.33)" d="M 70 18.667 L 68.833 59.267 L 41.767 70 L 27.067000000000004 60.433 L 41.767 37.5 L 70 18.667 Z" stroke-linecap="round" />
</g>
		<g transform="matrix(1.07 0 0 1.07 19.82 -19.2)"  >
<linearGradient id="SVGID___JETBRAINS_COM__LOGO_PREFIX__1_6" gradientUnits="userSpaceOnUse" gradientTransform="matrix(1 0 0 1 0 0)"  x1="61.991" y1="36.915" x2="50.158" y2="1.557">
<stop offset="0%" style="stop-color:rgb(254,40,87);stop-opacity: 1"/>
<stop offset="7.8%" style="stop-color:rgb(203,57,121);stop-opacity: 1"/>
<stop offset="16%" style="stop-color:rgb(158,73,151);stop-opacity: 1"/>
<stop offset="24.7%" style="stop-color:rgb(117,87,178);stop-opacity: 1"/>
<stop offset="33.900000000000006%" style="stop-color:rgb(83,98,200);stop-opacity: 1"/>
<stop offset="43.6%" style="stop-color:rgb(56,108,218);stop-opacity: 1"/>
<stop offset="54.1%" style="stop-color:rgb(35,115,232);stop-opacity: 1"/>
<stop offset="65.8%" style="stop-color:rgb(20,120,242);stop-opacity: 1"/>
<stop offset="79.4%" style="stop-color:rgb(11,123,248);stop-opacity: 1"/>
<stop offset="100%" style="stop-color:rgb(8,124,250);stop-opacity: 1"/>
</linearGradient>
<path style="stroke: none; stroke-width: 1; stroke-dasharray: none; stroke-linecap: butt; stroke-dashoffset: 0; stroke-linejoin: miter; stroke-miterlimit: 4; fill: url(#SVGID___JETBRAINS_COM__LOGO_PREFIX__1_6); fill-rule: nonzero; opacity: 1;" vector-effect="non-scaling-stroke"  transform=" translate(-53.5, -17.08)" d="M 70 18.667 L 55.5 33 L 37 15 L 48.067 1.167 L 70 18.667 Z" stroke-linecap="round" />
</g>
		<g transform="matrix(1.07 0 0 1.07 -7.77 -0.87)"  >
<linearGradient id="SVGID___JETBRAINS_COM__LOGO_PREFIX__0_7" gradientUnits="userSpaceOnUse" gradientTransform="matrix(1 0 0 1 0 0)"  x1="10.066" y1="16.495" x2="53.876" y2="88.96">
<stop offset="0%" style="stop-color:rgb(254,40,87);stop-opacity: 1"/>
<stop offset="8%" style="stop-color:rgb(254,41,95);stop-opacity: 1"/>
<stop offset="20.599999999999998%" style="stop-color:rgb(255,45,118);stop-opacity: 1"/>
<stop offset="30.3%" style="stop-color:rgb(255,49,140);stop-opacity: 1"/>
<stop offset="38.5%" style="stop-color:rgb(234,56,150);stop-opacity: 1"/>
<stop offset="55.300000000000004%" style="stop-color:rgb(178,72,174);stop-opacity: 1"/>
<stop offset="79.2%" style="stop-color:rgb(90,99,214);stop-opacity: 1"/>
<stop offset="100%" style="stop-color:rgb(8,124,250);stop-opacity: 1"/>
</linearGradient>
<path style="stroke: none; stroke-width: 1; stroke-dasharray: none; stroke-linecap: butt; stroke-dashoffset: 0; stroke-linejoin: miter; stroke-miterlimit: 4; fill: url(#SVGID___JETBRAINS_COM__LOGO_PREFIX__0_7); fill-rule: nonzero; opacity: 1;" vector-effect="non-scaling-stroke"  transform=" translate(-27.75, -34.18)" d="M 27.067 60.433 L 5.6 68.367 L 10.033 52.5 L 15.866999999999999 33.132999999999996 L 0 27.767 L 10.033 0 L 33.133 2.8 L 54.5 31 L 55.5 33 L 27.067 60.433 Z" stroke-linecap="round" />
</g>
		<g transform="matrix(1.07 0 0 1.07 0 0)"  >
<path style="stroke: none; stroke-width: 1; stroke-dasharray: none; stroke-linecap: butt; stroke-dashoffset: 0; stroke-linejoin: miter; stroke-miterlimit: 4; fill: rgb(0,0,0); fill-rule: nonzero; opacity: 1;" vector-effect="non-scaling-stroke"  transform=" translate(-35, -35)" d="M 56 14 L 14 14 L 14 56 L 56 56 L 56 14 Z" stroke-linecap="round" />
</g>
		<g transform="matrix(1.07 0 0 1.07 -5.94 0.31)"  >
<path style="stroke: none; stroke-width: 1; stroke-dasharray: none; stroke-linecap: butt; stroke-dashoffset: 0; stroke-linejoin: miter; stroke-miterlimit: 4; fill: rgb(255,255,255); fill-rule: nonzero; opacity: 1;" vector-effect="non-scaling-stroke"  transform=" translate(-29.46, -35.29)" d="M 27.137 22.143 L 27.137 19.25 L 19.273 19.25 L 19.273 22.143 L 21.467 22.143 L 21.467 32.107 L 19.273 32.107 L 19.273 34.977 L 27.137 34.977 L 27.137 32.107 L 24.92 32.107 L 24.92 22.143 L 27.137 22.143 Z M 34.697 35.21 C 33.46 35.21 32.433 34.977000000000004 31.617000000000004 34.51 C 30.83803125987075 34.086021200290716 30.142165241966715 33.52465314203026 29.563000000000006 32.852999999999994 L 31.733000000000004 30.426999999999992 C 32.17700000000001 30.91699999999999 32.643 31.31299999999999 33.087 31.592999999999993 C 33.553000000000004 31.872999999999994 34.043000000000006 32.01299999999999 34.603 32.01299999999999 C 35.257000000000005 32.01299999999999 35.77 31.80299999999999 36.143 31.382999999999992 C 36.517 30.96299999999999 36.703 30.30999999999999 36.703 29.39999999999999 L 36.703 19.273 L 40.25 19.273 L 40.25 29.563 C 40.25 30.497 40.133 31.313 39.877 32.013 C 39.620000000000005 32.713 39.247 33.297 38.78 33.763 C 38.29 34.253 37.707 34.603 37.007 34.86 C 36.306999999999995 35.092999999999996 35.537 35.21 34.696999999999996 35.21 Z M 34.417 48.65 L 18.667 48.65 L 18.667 51.333 L 34.417 51.333 L 34.417 48.65 Z" stroke-linecap="round" />
</g>
</g>
</g>
<g transform="matrix(NaN NaN NaN NaN 0 0)"  >
<g style=""   >
</g>
</g>
<g transform="matrix(15.43 0 0 15.43 540 540)"  >
<g style=""   >
		<g transform="matrix(1.07 0 0 1.07 -27.21 2.93)"  >
<linearGradient id="SVGID___JETBRAINS_COM__LOGO_PREFIX__2_10" gradientUnits="userSpaceOnUse" gradientTransform="matrix(1 0 0 1 0 0)"  x1="5.174" y1="39.889" x2="40.014" y2="38.123">
<stop offset="9.1%" style="stop-color:rgb(252,128,29);stop-opacity: 1"/>
<stop offset="23.1%" style="stop-color:rgb(176,127,97);stop-opacity: 1"/>
<stop offset="40.9%" style="stop-color:rgb(87,125,179);stop-opacity: 1"/>
<stop offset="53.300000000000004%" style="stop-color:rgb(30,124,230);stop-opacity: 1"/>
<stop offset="59.3%" style="stop-color:rgb(8,124,250);stop-opacity: 1"/>
</linearGradient>
<path style="stroke: none; stroke-width: 1; stroke-dasharray: none; stroke-linecap: butt; stroke-dashoffset: 0; stroke-linejoin: miter; stroke-miterlimit: 4; fill: url(#SVGID___JETBRAINS_COM__LOGO_PREFIX__2_10); fill-rule: nonzero; opacity: 1;" vector-effect="non-scaling-stroke"  transform=" translate(-9.6, -37.73)" d="M 11.2 49.467 L 0.7 41.3 L 9 26 L 18.5 33.5 L 11.2 49.467 Z" stroke-linecap="round" />
</g>
		<g transform="matrix(1.07 0 0 1.07 14.5 10)"  >
<path style="stroke: none; stroke-width: 1; stroke-dasharray: none; stroke-linecap: butt; stroke-dashoffset: 0; stroke-linejoin: miter; stroke-miterlimit: 4; fill: rgb(8,124,250); fill-rule: nonzero; opacity: 1;" vector-effect="non-scaling-stroke"  transform=" translate(-48.53, -44.33)" d="M 70 18.667 L 68.833 59.267 L 41.767 70 L 27.067000000000004 60.433 L 41.767 37.5 L 70 18.667 Z" stroke-linecap="round" />
</g>
		<g transform="matrix(1.07 0 0 1.07 19.82 -19.2)"  >
<linearGradient id="SVGID___JETBRAINS_COM__LOGO_PREFIX__1_11" gradientUnits="userSpaceOnUse" gradientTransform="matrix(1 0 0 1 0 0)"  x1="61.991" y1="36.915" x2="50.158" y2="1.557">
<stop offset="0%" style="stop-color:rgb(254,40,87);stop-opacity: 1"/>
<stop offset="7.8%" style="stop-color:rgb(203,57,121);stop-opacity: 1"/>
<stop offset="16%" style="stop-color:rgb(158,73,151);stop-opacity: 1"/>
<stop offset="24.7%" style="stop-color:rgb(117,87,178);stop-opacity: 1"/>
<stop offset="33.900000000000006%" style="stop-color:rgb(83,98,200);stop-opacity: 1"/>
<stop offset="43.6%" style="stop-color:rgb(56,108,218);stop-opacity: 1"/>
<stop offset="54.1%" style="stop-color:rgb(35,115,232);stop-opacity: 1"/>
<stop offset="65.8%" style="stop-color:rgb(20,120,242);stop-opacity: 1"/>
<stop offset="79.4%" style="stop-color:rgb(11,123,248);stop-opacity: 1"/>
<stop offset="100%" style="stop-color:rgb(8,124,250);stop-opacity: 1"/>
</linearGradient>
<path style="stroke: none; stroke-width: 1; stroke-dasharray: none; stroke-linecap: butt; stroke-dashoffset: 0; stroke-linejoin: miter; stroke-miterlimit: 4; fill: url(#SVGID___JETBRAINS_COM__LOGO_PREFIX__1_11); fill-rule: nonzero; opacity: 1;" vector-effect="non-scaling-stroke"  transform=" translate(-53.5, -17.08)" d="M 70 18.667 L 55.5 33 L 37 15 L 48.067 1.167 L 70 18.667 Z" stroke-linecap="round" />
</g>
		<g transform="matrix(1.07 0 0 1.07 -7.77 -0.87)"  >
<linearGradient id="SVGID___JETBRAINS_COM__LOGO_PREFIX__0_12" gradientUnits="userSpaceOnUse" gradientTransform="matrix(1 0 0 1 0 0)"  x1="10.066" y1="16.495" x2="53.876" y2="88.96">
<stop offset="0%" style="stop-color:rgb(254,40,87);stop-opacity: 1"/>
<stop offset="8%" style="stop-color:rgb(254,41,95);stop-opacity: 1"/>
<stop offset="20.599999999999998%" style="stop-color:rgb(255,45,118);stop-opacity: 1"/>
<stop offset="30.3%" style="stop-color:rgb(255,49,140);stop-opacity: 1"/>
<stop offset="38.5%" style="stop-color:rgb(234,56,150);stop-opacity: 1"/>
<stop offset="55.300000000000004%" style="stop-color:rgb(178,72,174);stop-opacity: 1"/>
<stop offset="79.2%" style="stop-color:rgb(90,99,214);stop-opacity: 1"/>
<stop offset="100%" style="stop-color:rgb(8,124,250);stop-opacity: 1"/>
</linearGradient>
<path style="stroke: none; stroke-width: 1; stroke-dasharray: none; stroke-linecap: butt; stroke-dashoffset: 0; stroke-linejoin: miter; stroke-miterlimit: 4; fill: url(#SVGID___JETBRAINS_COM__LOGO_PREFIX__0_12); fill-rule: nonzero; opacity: 1;" vector-effect="non-scaling-stroke"  transform=" translate(-27.75, -34.18)" d="M 27.067 60.433 L 5.6 68.367 L 10.033 52.5 L 15.866999999999999 33.132999999999996 L 0 27.767 L 10.033 0 L 33.133 2.8 L 54.5 31 L 55.5 33 L 27.067 60.433 Z" stroke-linecap="round" />
</g>
		<g transform="matrix(1.07 0 0 1.07 0 0)"  >
<path style="stroke: none; stroke-width: 1; stroke-dasharray: none; stroke-linecap: butt; stroke-dashoffset: 0; stroke-linejoin: miter; stroke-miterlimit: 4; fill: rgb(0,0,0); fill-rule: nonzero; opacity: 1;" vector-effect="non-scaling-stroke"  transform=" translate(-35, -35)" d="M 56 14 L 14 14 L 14 56 L 56 56 L 56 14 Z" stroke-linecap="round" />
</g>
		<g transform="matrix(1.07 0 0 1.07 -5.94 0.31)"  >
<path style="stroke: none; stroke-width: 1; stroke-dasharray: none; stroke-linecap: butt; stroke-dashoffset: 0; stroke-linejoin: miter; stroke-miterlimit: 4; fill: rgb(255,255,255); fill-rule: nonzero; opacity: 1;" vector-effect="non-scaling-stroke"  transform=" translate(-29.46, -35.29)" d="M 27.137 22.143 L 27.137 19.25 L 19.273 19.25 L 19.273 22.143 L 21.467 22.143 L 21.467 32.107 L 19.273 32.107 L 19.273 34.977 L 27.137 34.977 L 27.137 32.107 L 24.92 32.107 L 24.92 22.143 L 27.137 22.143 Z M 34.697 35.21 C 33.46 35.21 32.433 34.977000000000004 31.617000000000004 34.51 C 30.83803125987075 34.086021200290716 30.142165241966715 33.52465314203026 29.563000000000006 32.852999999999994 L 31.733000000000004 30.426999999999992 C 32.17700000000001 30.91699999999999 32.643 31.31299999999999 33.087 31.592999999999993 C 33.553000000000004 31.872999999999994 34.043000000000006 32.01299999999999 34.603 32.01299999999999 C 35.257000000000005 32.01299999999999 35.77 31.80299999999999 36.143 31.382999999999992 C 36.517 30.96299999999999 36.703 30.30999999999999 36.703 29.39999999999999 L 36.703 19.273 L 40.25 19.273 L 40.25 29.563 C 40.25 30.497 40.133 31.313 39.877 32.013 C 39.620000000000005 32.713 39.247 33.297 38.78 33.763 C 38.29 34.253 37.707 34.603 37.007 34.86 C 36.306999999999995 35.092999999999996 35.537 35.21 34.696999999999996 35.21 Z M 34.417 48.65 L 18.667 48.65 L 18.667 51.333 L 34.417 51.333 L 34.417 48.65 Z" stroke-linecap="round" />
</g>
</g>
</g>
</svg>